<?xml version="1.0" encoding="utf-8"?>
<!-- Generator: Adobe Illustrator 26.0.2, SVG Export Plug-In . SVG Version: 6.00 Build 0)  -->
<svg version="1.1" id="Layer_1" xmlns="http://www.w3.org/2000/svg" xmlns:xlink="http://www.w3.org/1999/xlink" x="0px" y="0px"
	 viewBox="0 0 60 60" style="enable-background:new 0 0 60 60;" xml:space="preserve">
<style type="text/css">
	.st0{fill:#F4D35E;}
	.st1{fill:#5492EF;}
	.st2{fill:#1857B6;}
	.st3{fill:#0F3875;}
</style>
<g>
	<path class="st0" d="M5.8,55.4l-3.5-5.2c3.4-2.3,1.9-6.3,1.4-7.7c-0.3-0.9-0.7-1.8-1.2-2.8c-1-2.3-2.1-4.7-2.4-7.5
		c-0.5-4.3,0.9-8.6,3.8-11.8c2-2.1,4.4-3.7,7.2-4.6c3.7-1.3,7.4-1.7,11.1-2c1.3-0.1,2.6-0.2,3.9-0.4c7.5-1,15.1-3.9,22.4-8.7
		l3.4,5.2c-8.1,5.3-16.6,8.6-25,9.7c-1.4,0.2-2.8,0.3-4.1,0.4c-3.4,0.3-6.6,0.6-9.5,1.7c-1.8,0.6-3.4,1.6-4.7,3
		c-1.7,1.8-2.5,4.3-2.2,6.8c0.2,1.8,1,3.7,1.9,5.7c0.5,1,0.9,2.1,1.3,3.2C11.9,46.7,10.5,52.2,5.8,55.4z"/>
	<path class="st1" d="M15.4,26.6c7.3,0.2,14.6-0.5,21.7-1.9c7.1-1.4,14-3.5,20.6-6.4l2.3,5.9c-10.8,3.5-22.1,5.3-33.5,5.2
		c-3.8,0-7.5-0.2-11.2-0.7L15.4,26.6L15.4,26.6z"/>
	<path class="st2" d="M15.7,33c10.2,1.7,20.5,1.8,30.7,0.4c3.3-0.5,6.7-1.1,9.9-1.9l1.2,6.2c-14.2,2-28.6,1.1-42.4-2.6L15.7,33
		L15.7,33z"/>
	<path class="st3" d="M14.5,39.1c9.8,3.4,20.1,5.4,30.6,5.8c3.4,0.1,6.9,0,10.3-0.2l0.2,6.3c-14.5-0.3-28.7-3.7-41.9-9.7L14.5,39.1
		L14.5,39.1z"/>
</g>
</svg>
